<svg width="11" height="11" viewBox="0 0 11 11" fill="black" xmlns="http://www.w3.org/2000/svg">
<path d="M0.334994 10.6783C0.540769 10.8843 0.819822 11 1.11079 11C1.40175 11 1.68081 10.8843 1.88658 10.6783L5.5 7.06039L9.11342 10.6783C9.32037 10.8785 9.59755 10.9892 9.88526 10.9867C10.173 10.9842 10.4482 10.8686 10.6516 10.6649C10.8551 10.4612 10.9705 10.1857 10.973 9.89761C10.9755 9.60954 10.8649 9.33201 10.665 9.1248L7.05159 5.50687L10.665 1.88894C10.7698 1.78759 10.8534 1.66635 10.9109 1.53231C10.9684 1.39827 10.9987 1.2541 11 1.10822C11.0012 0.962339 10.9735 0.817666 10.9183 0.682643C10.8631 0.54762 10.7816 0.424951 10.6786 0.321794C10.5756 0.218636 10.4531 0.137056 10.3182 0.0818142C10.1834 0.0265719 10.0389 -0.00122618 9.89316 4.14827e-05C9.74746 0.00130915 9.60347 0.0316175 9.4696 0.0891978C9.33572 0.146778 9.21464 0.230478 9.11342 0.335412L5.5 3.95334L1.88658 0.335412C1.78536 0.230478 1.66428 0.146778 1.5304 0.0891978C1.39653 0.0316175 1.25254 0.00130915 1.10684 4.14827e-05C0.961139 -0.00122618 0.816646 0.0265719 0.681792 0.0818142C0.546937 0.137056 0.424421 0.218636 0.321392 0.321794C0.218364 0.424951 0.136886 0.54762 0.0817121 0.682643C0.0265388 0.817666 -0.00122466 0.962339 4.14309e-05 1.10822C0.00130752 1.2541 0.031578 1.39827 0.0890866 1.53231C0.146595 1.66635 0.23019 1.78759 0.334994 1.88894L3.94841 5.50687L0.334994 9.1248C0.129281 9.33083 0.0137183 9.61023 0.0137183 9.90156C0.0137183 10.1929 0.129281 10.4723 0.334994 10.6783Z" fill="black"/>
</svg>