<svg width="68" height="44" viewBox="0 0 68 44" fill="none" xmlns="http://www.w3.org/2000/svg">
<path d="M33.1714 28C33.1714 28.8284 33.843 29.5 34.6714 29.5C35.4998 29.5 36.1714 28.8284 36.1714 28H33.1714ZM35.732 0.939341C35.1463 0.353554 34.1965 0.353554 33.6107 0.939341L24.0648 10.4853C23.479 11.0711 23.479 12.0208 24.0648 12.6066C24.6506 13.1924 25.6003 13.1924 26.1861 12.6066L34.6714 4.12132L43.1567 12.6066C43.7425 13.1924 44.6922 13.1924 45.278 12.6066C45.8638 12.0208 45.8638 11.0711 45.278 10.4853L35.732 0.939341ZM36.1714 28V2H33.1714V28H36.1714Z" fill="black"/>
<path d="M2.44165 15V39C2.44165 40.6569 3.7848 42 5.44165 42H62.5584C64.2152 42 65.5583 40.6569 65.5583 39V15" stroke="black" stroke-width="3" stroke-linecap="round"/>
</svg>
